<mxfile host="app.diagrams.net" agent="Mozilla/5.0 (Windows NT 10.0; Win64; x64) AppleWebKit/537.36 (KHTML, like Gecko) Chrome/132.0.0.0 Safari/537.36 OPR/117.0.0.0" version="26.1.1">
  <diagram name="Page-1" id="5f0bae14-7c28-e335-631c-24af17079c00">
    <mxGraphModel dx="2102" dy="565" grid="1" gridSize="10" guides="1" tooltips="1" connect="1" arrows="1" fold="1" page="1" pageScale="1" pageWidth="1100" pageHeight="850" background="none" math="0" shadow="0">
      <root>
        <mxCell id="0" />
        <mxCell id="1" parent="0" />
        <mxCell id="39150e848f15840c-1" value="Controller" style="verticalAlign=top;align=left;spacingTop=8;spacingLeft=2;spacingRight=12;shape=cube;size=10;direction=south;fontStyle=4;html=1;rounded=0;shadow=0;comic=0;labelBackgroundColor=none;strokeWidth=1;fontFamily=Verdana;fontSize=12" parent="1" vertex="1">
          <mxGeometry x="120" y="70" width="330" height="220" as="geometry" />
        </mxCell>
        <mxCell id="39150e848f15840c-2" value="View" style="verticalAlign=top;align=left;spacingTop=8;spacingLeft=2;spacingRight=12;shape=cube;size=10;direction=south;fontStyle=4;html=1;rounded=0;shadow=0;comic=0;labelBackgroundColor=none;strokeWidth=1;fontFamily=Verdana;fontSize=12" parent="1" vertex="1">
          <mxGeometry x="530" y="70" width="330" height="220" as="geometry" />
        </mxCell>
        <mxCell id="39150e848f15840c-3" value="Models" style="verticalAlign=top;align=left;spacingTop=8;spacingLeft=2;spacingRight=12;shape=cube;size=10;direction=south;fontStyle=4;html=1;rounded=0;shadow=0;comic=0;labelBackgroundColor=none;strokeWidth=1;fontFamily=Verdana;fontSize=12" parent="1" vertex="1">
          <mxGeometry x="380" y="440" width="260" height="150" as="geometry" />
        </mxCell>
        <mxCell id="39150e848f15840c-5" value="Entidades" style="shape=component;align=left;spacingLeft=36;rounded=0;shadow=0;comic=0;labelBackgroundColor=none;strokeWidth=1;fontFamily=Verdana;fontSize=12;html=1;" parent="1" vertex="1">
          <mxGeometry x="180" y="140" width="190" height="100" as="geometry" />
        </mxCell>
        <mxCell id="39150e848f15840c-7" value="Pantallas" style="shape=component;align=left;spacingLeft=36;rounded=0;shadow=0;comic=0;labelBackgroundColor=none;strokeWidth=1;fontFamily=Verdana;fontSize=12;html=1;" parent="1" vertex="1">
          <mxGeometry x="575" y="125" width="240" height="115" as="geometry" />
        </mxCell>
        <mxCell id="39150e848f15840c-10" value="Modelos" style="shape=component;align=left;spacingLeft=36;rounded=0;shadow=0;comic=0;labelBackgroundColor=none;strokeWidth=1;fontFamily=Verdana;fontSize=12;html=1;" parent="1" vertex="1">
          <mxGeometry x="420" y="480" width="170" height="90" as="geometry" />
        </mxCell>
        <mxCell id="39150e848f15840c-12" style="edgeStyle=none;rounded=0;html=1;dashed=1;labelBackgroundColor=none;startArrow=none;startFill=0;startSize=8;endArrow=open;endFill=0;endSize=16;fontFamily=Verdana;fontSize=12;exitX=0;exitY=0;exitDx=105;exitDy=0;exitPerimeter=0;" parent="1" source="39150e848f15840c-2" edge="1">
          <mxGeometry relative="1" as="geometry">
            <mxPoint x="921.6000366210938" y="160" as="sourcePoint" />
            <mxPoint x="960" y="175" as="targetPoint" />
          </mxGeometry>
        </mxCell>
        <mxCell id="Tc29EFgoXUphkKBZOuk3-1" value="Actor" style="shape=umlActor;verticalLabelPosition=bottom;verticalAlign=top;html=1;outlineConnect=0;" vertex="1" parent="1">
          <mxGeometry x="960" y="135" width="30" height="60" as="geometry" />
        </mxCell>
        <mxCell id="Tc29EFgoXUphkKBZOuk3-2" value="MySQL" style="shape=cylinder3;whiteSpace=wrap;html=1;boundedLbl=1;backgroundOutline=1;size=15;" vertex="1" parent="1">
          <mxGeometry x="-140" y="340" width="160" height="140" as="geometry" />
        </mxCell>
        <mxCell id="Tc29EFgoXUphkKBZOuk3-4" style="edgeStyle=none;rounded=0;html=1;dashed=1;labelBackgroundColor=none;startArrow=none;startFill=0;startSize=8;endArrow=open;endFill=0;endSize=16;fontFamily=Verdana;fontSize=12;exitX=0.005;exitY=0.511;exitDx=0;exitDy=0;exitPerimeter=0;entryX=0.985;entryY=0.479;entryDx=0;entryDy=0;entryPerimeter=0;" edge="1" parent="1" source="39150e848f15840c-3" target="39150e848f15840c-2">
          <mxGeometry relative="1" as="geometry">
            <mxPoint x="870" y="185" as="sourcePoint" />
            <mxPoint x="970" y="185" as="targetPoint" />
          </mxGeometry>
        </mxCell>
        <mxCell id="Tc29EFgoXUphkKBZOuk3-5" style="edgeStyle=none;rounded=0;html=1;dashed=1;labelBackgroundColor=none;startArrow=none;startFill=0;startSize=8;endArrow=open;endFill=0;endSize=16;fontFamily=Verdana;fontSize=12;entryX=0.013;entryY=0.562;entryDx=0;entryDy=0;entryPerimeter=0;exitX=0;exitY=0;exitDx=220;exitDy=170;exitPerimeter=0;" edge="1" parent="1" source="39150e848f15840c-1" target="39150e848f15840c-3">
          <mxGeometry relative="1" as="geometry">
            <mxPoint x="300" y="300" as="sourcePoint" />
            <mxPoint x="712" y="297" as="targetPoint" />
          </mxGeometry>
        </mxCell>
        <mxCell id="Tc29EFgoXUphkKBZOuk3-6" style="edgeStyle=none;rounded=0;html=1;dashed=1;labelBackgroundColor=none;startArrow=none;startFill=0;startSize=8;endArrow=open;endFill=0;endSize=16;fontFamily=Verdana;fontSize=12;exitX=1;exitY=0.5;exitDx=0;exitDy=0;exitPerimeter=0;" edge="1" parent="1" source="Tc29EFgoXUphkKBZOuk3-2" target="39150e848f15840c-1">
          <mxGeometry relative="1" as="geometry">
            <mxPoint x="527" y="461" as="sourcePoint" />
            <mxPoint x="722" y="307" as="targetPoint" />
          </mxGeometry>
        </mxCell>
        <mxCell id="Tc29EFgoXUphkKBZOuk3-7" style="edgeStyle=none;rounded=0;html=1;dashed=1;labelBackgroundColor=none;startArrow=none;startFill=0;startSize=8;endArrow=open;endFill=0;endSize=16;fontFamily=Verdana;fontSize=12;exitX=0;exitY=0;exitDx=105;exitDy=0;exitPerimeter=0;" edge="1" parent="1" source="39150e848f15840c-1" target="39150e848f15840c-2">
          <mxGeometry relative="1" as="geometry">
            <mxPoint x="30" y="420" as="sourcePoint" />
            <mxPoint x="520" y="175" as="targetPoint" />
          </mxGeometry>
        </mxCell>
        <mxCell id="Tc29EFgoXUphkKBZOuk3-8" style="edgeStyle=none;rounded=0;html=1;dashed=1;labelBackgroundColor=none;startArrow=none;startFill=0;startSize=8;endArrow=open;endFill=0;endSize=16;fontFamily=Verdana;fontSize=12;entryX=0.615;entryY=0.01;entryDx=0;entryDy=0;entryPerimeter=0;exitX=0.618;exitY=0.995;exitDx=0;exitDy=0;exitPerimeter=0;" edge="1" parent="1" source="39150e848f15840c-2" target="39150e848f15840c-1">
          <mxGeometry relative="1" as="geometry">
            <mxPoint x="510" y="240" as="sourcePoint" />
            <mxPoint x="540" y="187" as="targetPoint" />
          </mxGeometry>
        </mxCell>
      </root>
    </mxGraphModel>
  </diagram>
</mxfile>
